<mxfile host="app.diagrams.net" modified="2023-07-07T07:06:16.130Z" agent="Mozilla/5.0 (Macintosh; Intel Mac OS X 10_15_7) AppleWebKit/537.36 (KHTML, like Gecko) Chrome/114.0.0.0 Safari/537.36 Edg/114.0.1823.67" etag="Bw4eITgOulCP6pOTLc32" version="21.6.0" type="device">
  <diagram name="Page-1" id="42789a77-a242-8287-6e28-9cd8cfd52e62">
    <mxGraphModel dx="647" dy="796" grid="1" gridSize="10" guides="1" tooltips="1" connect="1" arrows="1" fold="1" page="1" pageScale="1" pageWidth="1100" pageHeight="850" background="none" math="0" shadow="0">
      <root>
        <mxCell id="0" />
        <mxCell id="1" parent="0" />
        <mxCell id="1ea317790d2ca983-1" value="0" style="ellipse;whiteSpace=wrap;html=1;rounded=0;shadow=1;comic=0;labelBackgroundColor=none;strokeWidth=1;fontFamily=Verdana;fontSize=12;align=center;" parent="1" vertex="1">
          <mxGeometry x="450" y="80" width="90" height="60" as="geometry" />
        </mxCell>
        <mxCell id="1ea317790d2ca983-2" value="&lt;span&gt;4&lt;/span&gt;" style="ellipse;whiteSpace=wrap;html=1;rounded=0;shadow=1;comic=0;labelBackgroundColor=none;strokeWidth=1;fontFamily=Verdana;fontSize=12;align=center;" parent="1" vertex="1">
          <mxGeometry x="560" y="200" width="75" height="50" as="geometry" />
        </mxCell>
        <mxCell id="1ea317790d2ca983-6" value="&lt;span&gt;2&lt;/span&gt;" style="ellipse;whiteSpace=wrap;html=1;rounded=0;shadow=1;comic=0;labelBackgroundColor=none;strokeWidth=1;fontFamily=Verdana;fontSize=12;align=center;" parent="1" vertex="1">
          <mxGeometry x="620" y="330" width="75" height="50" as="geometry" />
        </mxCell>
        <mxCell id="1ea317790d2ca983-9" value="10" style="ellipse;whiteSpace=wrap;html=1;rounded=0;shadow=1;comic=0;labelBackgroundColor=none;strokeWidth=1;fontFamily=Verdana;fontSize=12;align=center;" parent="1" vertex="1">
          <mxGeometry x="310" y="170" width="75" height="50" as="geometry" />
        </mxCell>
        <mxCell id="1ea317790d2ca983-10" value="&lt;span&gt;8&lt;/span&gt;" style="ellipse;whiteSpace=wrap;html=1;rounded=0;shadow=1;comic=0;labelBackgroundColor=none;strokeWidth=1;fontFamily=Verdana;fontSize=12;align=center;" parent="1" vertex="1">
          <mxGeometry x="270" y="270" width="75" height="50" as="geometry" />
        </mxCell>
        <mxCell id="1ea317790d2ca983-11" value="&lt;span&gt;5&lt;/span&gt;" style="ellipse;whiteSpace=wrap;html=1;rounded=0;shadow=1;comic=0;labelBackgroundColor=none;strokeWidth=1;fontFamily=Verdana;fontSize=12;align=center;" parent="1" vertex="1">
          <mxGeometry x="220" y="390" width="75" height="50" as="geometry" />
        </mxCell>
        <mxCell id="nsEzxHH3ygIER1DPIZS0-3" value="&lt;span&gt;3&lt;/span&gt;" style="ellipse;whiteSpace=wrap;html=1;rounded=0;shadow=1;comic=0;labelBackgroundColor=none;strokeWidth=1;fontFamily=Verdana;fontSize=12;align=center;" parent="1" vertex="1">
          <mxGeometry x="185" y="500" width="75" height="50" as="geometry" />
        </mxCell>
        <mxCell id="nsEzxHH3ygIER1DPIZS0-4" value="&lt;span&gt;6&lt;/span&gt;" style="ellipse;whiteSpace=wrap;html=1;rounded=0;shadow=1;comic=0;labelBackgroundColor=none;strokeWidth=1;fontFamily=Verdana;fontSize=12;align=center;" parent="1" vertex="1">
          <mxGeometry x="120" y="700" width="75" height="50" as="geometry" />
        </mxCell>
        <mxCell id="nsEzxHH3ygIER1DPIZS0-5" value="&lt;span&gt;31&lt;/span&gt;" style="ellipse;whiteSpace=wrap;html=1;rounded=0;shadow=1;comic=0;labelBackgroundColor=none;strokeWidth=1;fontFamily=Verdana;fontSize=12;align=center;" parent="1" vertex="1">
          <mxGeometry x="790" y="670" width="75" height="50" as="geometry" />
        </mxCell>
        <mxCell id="nsEzxHH3ygIER1DPIZS0-6" value="&lt;span&gt;9&lt;/span&gt;" style="ellipse;whiteSpace=wrap;html=1;rounded=0;shadow=1;comic=0;labelBackgroundColor=none;strokeWidth=1;fontFamily=Verdana;fontSize=12;align=center;" parent="1" vertex="1">
          <mxGeometry x="160" y="600" width="75" height="50" as="geometry" />
        </mxCell>
        <mxCell id="nsEzxHH3ygIER1DPIZS0-7" value="&lt;span&gt;12&lt;/span&gt;" style="ellipse;whiteSpace=wrap;html=1;rounded=0;shadow=1;comic=0;labelBackgroundColor=none;strokeWidth=1;fontFamily=Verdana;fontSize=12;align=center;" parent="1" vertex="1">
          <mxGeometry x="750" y="590" width="75" height="50" as="geometry" />
        </mxCell>
        <mxCell id="nsEzxHH3ygIER1DPIZS0-8" value="&lt;span&gt;7&lt;/span&gt;" style="ellipse;whiteSpace=wrap;html=1;rounded=0;shadow=1;comic=0;labelBackgroundColor=none;strokeWidth=1;fontFamily=Verdana;fontSize=12;align=center;" parent="1" vertex="1">
          <mxGeometry x="660" y="420" width="75" height="50" as="geometry" />
        </mxCell>
        <mxCell id="nsEzxHH3ygIER1DPIZS0-9" value="&lt;span&gt;33&lt;/span&gt;" style="ellipse;whiteSpace=wrap;html=1;rounded=0;shadow=1;comic=0;labelBackgroundColor=none;strokeWidth=1;fontFamily=Verdana;fontSize=12;align=center;" parent="1" vertex="1">
          <mxGeometry x="880" y="375" width="75" height="50" as="geometry" />
        </mxCell>
        <mxCell id="nsEzxHH3ygIER1DPIZS0-10" value="&lt;span&gt;28&lt;/span&gt;" style="ellipse;whiteSpace=wrap;html=1;rounded=0;shadow=1;comic=0;labelBackgroundColor=none;strokeWidth=1;fontFamily=Verdana;fontSize=12;align=center;" parent="1" vertex="1">
          <mxGeometry x="720" y="500" width="75" height="50" as="geometry" />
        </mxCell>
        <mxCell id="nsEzxHH3ygIER1DPIZS0-11" value="&lt;span&gt;1&lt;/span&gt;" style="ellipse;whiteSpace=wrap;html=1;rounded=0;shadow=1;comic=0;labelBackgroundColor=none;strokeWidth=1;fontFamily=Verdana;fontSize=12;align=center;" parent="1" vertex="1">
          <mxGeometry x="835" y="750" width="75" height="50" as="geometry" />
        </mxCell>
        <mxCell id="aeBy0zSA8xUkaMTu8v9t-3" value="" style="endArrow=classic;html=1;rounded=0;" parent="1" source="nsEzxHH3ygIER1DPIZS0-11" target="nsEzxHH3ygIER1DPIZS0-4" edge="1">
          <mxGeometry width="50" height="50" relative="1" as="geometry">
            <mxPoint x="710" y="790" as="sourcePoint" />
            <mxPoint x="760" y="740" as="targetPoint" />
          </mxGeometry>
        </mxCell>
        <mxCell id="aeBy0zSA8xUkaMTu8v9t-4" value="" style="endArrow=classic;html=1;rounded=0;" parent="1" source="1ea317790d2ca983-6" target="nsEzxHH3ygIER1DPIZS0-8" edge="1">
          <mxGeometry width="50" height="50" relative="1" as="geometry">
            <mxPoint x="670" y="390" as="sourcePoint" />
            <mxPoint x="640" y="400" as="targetPoint" />
          </mxGeometry>
        </mxCell>
        <mxCell id="aeBy0zSA8xUkaMTu8v9t-5" value="" style="endArrow=classic;html=1;rounded=0;entryX=0.6;entryY=0.02;entryDx=0;entryDy=0;entryPerimeter=0;" parent="1" source="nsEzxHH3ygIER1DPIZS0-3" target="nsEzxHH3ygIER1DPIZS0-6" edge="1">
          <mxGeometry width="50" height="50" relative="1" as="geometry">
            <mxPoint x="270" y="590" as="sourcePoint" />
            <mxPoint x="320" y="540" as="targetPoint" />
          </mxGeometry>
        </mxCell>
        <mxCell id="aeBy0zSA8xUkaMTu8v9t-6" value="" style="endArrow=classic;html=1;rounded=0;" parent="1" source="1ea317790d2ca983-2" target="1ea317790d2ca983-6" edge="1">
          <mxGeometry width="50" height="50" relative="1" as="geometry">
            <mxPoint x="420" y="520" as="sourcePoint" />
            <mxPoint x="470" y="470" as="targetPoint" />
          </mxGeometry>
        </mxCell>
        <mxCell id="aeBy0zSA8xUkaMTu8v9t-7" value="" style="endArrow=classic;html=1;rounded=0;" parent="1" source="1ea317790d2ca983-11" target="nsEzxHH3ygIER1DPIZS0-3" edge="1">
          <mxGeometry width="50" height="50" relative="1" as="geometry">
            <mxPoint x="340" y="480" as="sourcePoint" />
            <mxPoint x="390" y="430" as="targetPoint" />
          </mxGeometry>
        </mxCell>
        <mxCell id="aeBy0zSA8xUkaMTu8v9t-9" value="" style="endArrow=classic;html=1;rounded=0;exitX=1;exitY=1;exitDx=0;exitDy=0;" parent="1" source="nsEzxHH3ygIER1DPIZS0-8" target="nsEzxHH3ygIER1DPIZS0-10" edge="1">
          <mxGeometry width="50" height="50" relative="1" as="geometry">
            <mxPoint x="752.5" y="470" as="sourcePoint" />
            <mxPoint x="802.5" y="420" as="targetPoint" />
          </mxGeometry>
        </mxCell>
        <mxCell id="aeBy0zSA8xUkaMTu8v9t-10" value="" style="endArrow=classic;html=1;rounded=0;exitX=0.5;exitY=1;exitDx=0;exitDy=0;" parent="1" source="1ea317790d2ca983-10" target="1ea317790d2ca983-11" edge="1">
          <mxGeometry width="50" height="50" relative="1" as="geometry">
            <mxPoint x="410" y="550" as="sourcePoint" />
            <mxPoint x="460" y="500" as="targetPoint" />
          </mxGeometry>
        </mxCell>
        <mxCell id="aeBy0zSA8xUkaMTu8v9t-11" value="" style="endArrow=classic;html=1;rounded=0;" parent="1" source="nsEzxHH3ygIER1DPIZS0-6" target="nsEzxHH3ygIER1DPIZS0-4" edge="1">
          <mxGeometry width="50" height="50" relative="1" as="geometry">
            <mxPoint x="100" y="630" as="sourcePoint" />
            <mxPoint x="150" y="580" as="targetPoint" />
          </mxGeometry>
        </mxCell>
        <mxCell id="aeBy0zSA8xUkaMTu8v9t-12" value="" style="endArrow=classic;html=1;rounded=0;" parent="1" source="1ea317790d2ca983-9" target="1ea317790d2ca983-10" edge="1">
          <mxGeometry width="50" height="50" relative="1" as="geometry">
            <mxPoint x="540" y="530" as="sourcePoint" />
            <mxPoint x="590" y="480" as="targetPoint" />
          </mxGeometry>
        </mxCell>
        <mxCell id="aeBy0zSA8xUkaMTu8v9t-13" value="" style="endArrow=classic;html=1;rounded=0;exitX=1;exitY=1;exitDx=0;exitDy=0;" parent="1" source="nsEzxHH3ygIER1DPIZS0-7" target="nsEzxHH3ygIER1DPIZS0-9" edge="1">
          <mxGeometry width="50" height="50" relative="1" as="geometry">
            <mxPoint x="970" y="630" as="sourcePoint" />
            <mxPoint x="1020" y="580" as="targetPoint" />
          </mxGeometry>
        </mxCell>
        <mxCell id="aeBy0zSA8xUkaMTu8v9t-14" value="" style="endArrow=classic;html=1;rounded=0;" parent="1" source="nsEzxHH3ygIER1DPIZS0-10" target="nsEzxHH3ygIER1DPIZS0-7" edge="1">
          <mxGeometry width="50" height="50" relative="1" as="geometry">
            <mxPoint x="540" y="530" as="sourcePoint" />
            <mxPoint x="590" y="480" as="targetPoint" />
          </mxGeometry>
        </mxCell>
        <mxCell id="aeBy0zSA8xUkaMTu8v9t-15" value="" style="endArrow=classic;html=1;rounded=0;" parent="1" source="nsEzxHH3ygIER1DPIZS0-5" target="nsEzxHH3ygIER1DPIZS0-11" edge="1">
          <mxGeometry width="50" height="50" relative="1" as="geometry">
            <mxPoint x="540" y="530" as="sourcePoint" />
            <mxPoint x="590" y="480" as="targetPoint" />
          </mxGeometry>
        </mxCell>
        <mxCell id="aeBy0zSA8xUkaMTu8v9t-17" value="" style="endArrow=classic;html=1;rounded=0;" parent="1" source="nsEzxHH3ygIER1DPIZS0-9" target="nsEzxHH3ygIER1DPIZS0-5" edge="1">
          <mxGeometry width="50" height="50" relative="1" as="geometry">
            <mxPoint x="540" y="530" as="sourcePoint" />
            <mxPoint x="590" y="480" as="targetPoint" />
          </mxGeometry>
        </mxCell>
        <mxCell id="0sb9iIPxTV9oH3RqsTFL-1" value="" style="endArrow=classic;html=1;rounded=0;exitX=1;exitY=1;exitDx=0;exitDy=0;" edge="1" parent="1" source="1ea317790d2ca983-1" target="1ea317790d2ca983-2">
          <mxGeometry width="50" height="50" relative="1" as="geometry">
            <mxPoint x="560" y="170" as="sourcePoint" />
            <mxPoint x="610" y="120" as="targetPoint" />
          </mxGeometry>
        </mxCell>
        <mxCell id="0sb9iIPxTV9oH3RqsTFL-2" value="" style="endArrow=none;dashed=1;html=1;dashPattern=1 3;strokeWidth=2;rounded=0;entryX=0;entryY=1;entryDx=0;entryDy=0;exitX=1;exitY=0;exitDx=0;exitDy=0;" edge="1" parent="1" source="1ea317790d2ca983-9" target="1ea317790d2ca983-1">
          <mxGeometry width="50" height="50" relative="1" as="geometry">
            <mxPoint x="400" y="190" as="sourcePoint" />
            <mxPoint x="450" y="140" as="targetPoint" />
          </mxGeometry>
        </mxCell>
      </root>
    </mxGraphModel>
  </diagram>
</mxfile>
